# xmcd
#
# Track frame offsets: 
#        150
#        14760
#        33083
#        44870
#        58808
#        77433
#        89983
#        106108
#        119413
#        137478
#
# Disc length: 1995 seconds
#
# Revision: 4
# Processed by: cddbd v1.5.2PL0 Copyright (c) Steve Scherf et al.
# Submitted via: ExactAudioCopy v0.99pb4
#
DISCID=8807c90a
DTITLE=The Highwaymen - Highwayman 2
DYEAR=1990
DGENRE=Country
TTITLE0=Silver Stallion
TTITLE1=Born And Raised In Black And White
TTITLE2=Two Stories Wide
TTITLE3=We're All In Your Corner
TTITLE4=American Remains
TTITLE5=Anthem '84
TTITLE6=Angels Love Bad Men
TTITLE7=Songs That Make A Difference
TTITLE8=Living Legend
TTITLE9=Texas
EXTD=
EXTT0=
EXTT1=
EXTT2=
EXTT3=
EXTT4=
EXTT5=
EXTT6=
EXTT7=
EXTT8=
EXTT9=
PLAYORDER=
